<svg width="512" height="512" viewBox="0 0 512 512" fill="none" xmlns="http://www.w3.org/2000/svg">
<path d="M44.1379 78C68.5197 78 88.2759 97.1829 88.2759 120.857C88.2759 144.531 68.5197 163.714 44.1379 163.714C19.7561 163.714 0 144.531 0 120.857C0 97.1829 19.7561 78 44.1379 78ZM185.379 78C209.761 78 229.517 97.1829 229.517 120.857C229.517 144.531 209.761 163.714 185.379 163.714C160.998 163.714 141.241 144.531 141.241 120.857C141.241 97.1829 160.998 78 185.379 78ZM326.621 78C351.002 78 370.759 97.1829 370.759 120.857C370.759 144.531 351.002 163.714 326.621 163.714C302.239 163.714 282.483 144.531 282.483 120.857C282.483 97.1829 302.239 78 326.621 78ZM44.1379 215.143C68.5197 215.143 88.2759 234.326 88.2759 258C88.2759 281.674 68.5197 300.857 44.1379 300.857C19.7561 300.857 0 281.674 0 258C0 234.326 19.7561 215.143 44.1379 215.143ZM185.379 215.143C209.761 215.143 229.517 234.326 229.517 258C229.517 281.674 209.761 300.857 185.379 300.857C160.998 300.857 141.241 281.674 141.241 258C141.241 234.326 160.998 215.143 185.379 215.143ZM326.621 215.143C351.002 215.143 370.759 234.326 370.759 258C370.759 281.674 351.002 300.857 326.621 300.857C302.239 300.857 282.483 281.674 282.483 258C282.483 234.326 302.239 215.143 326.621 215.143ZM467.862 215.143C492.244 215.143 512 234.326 512 258C512 281.674 492.244 300.857 467.862 300.857C443.48 300.857 423.724 281.674 423.724 258C423.724 234.326 443.48 215.143 467.862 215.143ZM185.379 352.286C209.761 352.286 229.517 371.469 229.517 395.143C229.517 418.817 209.761 438 185.379 438C160.998 438 141.241 418.817 141.241 395.143C141.241 371.469 160.998 352.286 185.379 352.286Z" fill="#2C9CD1"/>
</svg>
